<svg id="grey" xmlns="http://www.w3.org/2000/svg" viewBox="0 0 832.9 732.69">
  <defs>
    <style>
      .cls-1 {
        fill: #1d1d1b;
      }
    </style>
  </defs>
  <title>low_small</title>
  <g>
    <polygon class="cls-1" points="714.63 520.69 644.63 699.46 195.04 732.69 193.8 729.68 132.48 581.29 141.81 580.32 321.01 561.66 535.44 539.34 704.55 521.74 714.63 520.69"/>
    <polygon class="cls-1" points="832.9 218.61 714.63 520.69 704.55 521.74 535.44 539.34 619.92 331.09 694.79 146.54 832.9 218.61"/>
    <polygon class="cls-1" points="619.92 331.09 535.44 539.34 321.01 561.66 223.36 330.22 412.98 197.83 619.92 331.09"/>
    <polygon class="cls-1" points="694.79 146.54 619.92 331.09 412.98 197.83 259.69 97.15 413.96 0 694.79 146.54"/>
    <polygon class="cls-1" points="223.36 330.22 321.01 561.66 141.81 580.32 132.48 581.29 0 260.68 259.69 97.15 412.98 197.83 223.36 330.22"/>
  </g>
</svg>
