<svg id="Layer_1" data-name="Layer 1" xmlns="http://www.w3.org/2000/svg" viewBox="0 0 1312.6 722.6">
  <defs>
    <style>
      .cls-1 {
        fill: #1db8d1;
      }
    </style>
  </defs>
  <title>patterns-weather</title>
  <rect class="cls-1" x="5546.25" y="2848.89" width="34.56" height="2.95" transform="translate(-5408.82 3117.52) rotate(-56.78)"/>
  <rect class="cls-1" x="5972" y="2848.89" width="34.56" height="2.95" transform="translate(-5216.31 3473.7) rotate(-56.78)"/>
  <rect class="cls-1" x="6255.84" y="2848.89" width="34.56" height="2.95" transform="translate(-5087.97 3711.15) rotate(-56.78)"/>
  <rect class="cls-1" x="6397.76" y="2848.89" width="34.56" height="2.95" transform="translate(-5023.81 3829.88) rotate(-56.78)"/>
  <rect class="cls-1" x="5546.25" y="2955.34" width="34.56" height="2.95" transform="translate(-5497.88 3165.66) rotate(-56.78)"/>
  <rect class="cls-1" x="5688.16" y="2955.34" width="34.56" height="2.95" transform="translate(-5433.71 3284.38) rotate(-56.78)"/>
  <rect class="cls-1" x="5830.08" y="2955.34" width="34.56" height="2.95" transform="translate(-5369.54 3403.11) rotate(-56.78)"/>
  <rect class="cls-1" x="5972" y="2955.34" width="34.56" height="2.95" transform="translate(-5305.37 3521.84) rotate(-56.78)"/>
  <rect class="cls-1" x="6255.84" y="2955.34" width="34.56" height="2.95" transform="translate(-5177.03 3759.29) rotate(-56.78)"/>
  <rect class="cls-1" x="5688.16" y="3061.8" width="34.56" height="2.95" transform="translate(-5522.77 3332.52) rotate(-56.78)"/>
  <rect class="cls-1" x="5972" y="3061.8" width="34.56" height="2.95" transform="translate(-5394.43 3569.97) rotate(-56.78)"/>
  <rect class="cls-1" x="6397.76" y="3061.8" width="34.56" height="2.95" transform="translate(-5201.92 3926.15) rotate(-56.78)"/>
  <rect class="cls-1" x="5546.25" y="3168.25" width="34.56" height="2.95" transform="translate(-5675.99 3261.93) rotate(-56.78)"/>
  <rect class="cls-1" x="5688.16" y="3168.25" width="34.56" height="2.95" transform="translate(-5611.82 3380.65) rotate(-56.78)"/>
  <rect class="cls-1" x="5830.08" y="3168.25" width="34.56" height="2.95" transform="translate(-5547.65 3499.38) rotate(-56.78)"/>
  <rect class="cls-1" x="5972" y="3168.25" width="34.56" height="2.95" transform="translate(-5483.49 3618.1) rotate(-56.78)"/>
  <rect class="cls-1" x="6113.92" y="3168.25" width="34.56" height="2.95" transform="translate(-5419.32 3736.83) rotate(-56.78)"/>
  <rect class="cls-1" x="6255.84" y="3168.25" width="34.56" height="2.95" transform="translate(-5355.15 3855.56) rotate(-56.78)"/>
  <rect class="cls-1" x="6397.76" y="3168.25" width="34.56" height="2.95" transform="translate(-5290.98 3974.28) rotate(-56.78)"/>
  <rect class="cls-1" x="5546.25" y="3274.7" width="34.56" height="2.95" transform="translate(-5765.05 3310.06) rotate(-56.78)"/>
  <rect class="cls-1" x="5972" y="3274.7" width="34.56" height="2.95" transform="matrix(0.55, -0.84, 0.84, 0.55, -5572.54, 3666.24)"/>
  <rect class="cls-1" x="6113.92" y="3274.7" width="34.56" height="2.95" transform="matrix(0.55, -0.84, 0.84, 0.55, -5508.37, 3784.96)"/>
  <rect class="cls-1" x="6397.76" y="3274.7" width="34.56" height="2.95" transform="matrix(0.55, -0.84, 0.84, 0.55, -5380.04, 4022.42)"/>
  <rect class="cls-1" x="248.28" y="28.13" width="72.98" height="2.41"/>
  <rect class="cls-1" x="190.5" y="49.41" width="72.98" height="2.41"/>
  <rect class="cls-1" x="137.29" y="25.09" width="72.98" height="2.41"/>
  <rect class="cls-1" x="182.14" width="72.98" height="2.41"/>
  <rect class="cls-1" x="684.12" y="241.14" width="72.98" height="2.41"/>
  <rect class="cls-1" x="626.34" y="262.42" width="72.98" height="2.41"/>
  <rect class="cls-1" x="573.13" y="238.1" width="72.98" height="2.41"/>
  <rect class="cls-1" x="617.98" y="213.01" width="72.98" height="2.41"/>
  <rect class="cls-1" x="250.73" y="450.38" width="72.98" height="2.41"/>
  <rect class="cls-1" x="192.96" y="471.66" width="72.98" height="2.41"/>
  <rect class="cls-1" x="139.74" y="447.33" width="72.98" height="2.41"/>
  <rect class="cls-1" x="184.6" y="422.25" width="72.98" height="2.41"/>
  <path class="cls-1" d="M6141.91,2872.36a21.77,21.77,0,1,1,21.77-21.77A21.8,21.8,0,0,1,6141.91,2872.36Zm0-41.73a20,20,0,1,0,20,20A20,20,0,0,0,6141.91,2830.63Z" transform="translate(-5539.84 -2825.61)"/>
  <path class="cls-1" d="M5840,3547.36a21.77,21.77,0,1,1,21.77-21.77A21.8,21.8,0,0,1,5840,3547.36Zm0-41.73a20,20,0,1,0,20,20A20,20,0,0,0,5840,3505.63Z" transform="translate(-5539.84 -2825.61)"/>
  <path class="cls-1" d="M5691.55,3547.36a21.77,21.77,0,1,1,21.77-21.77A21.8,21.8,0,0,1,5691.55,3547.36Zm0-41.73a20,20,0,1,0,20,20A20,20,0,0,0,5691.55,3505.63Z" transform="translate(-5539.84 -2825.61)"/>
  <path class="cls-1" d="M6408.73,2978.1a21.77,21.77,0,1,1,21.77-21.77A21.8,21.8,0,0,1,6408.73,2978.1Zm0-41.73a20,20,0,1,0,20,20A20,20,0,0,0,6408.73,2936.37Z" transform="translate(-5539.84 -2825.61)"/>
  <rect class="cls-1" x="6539.99" y="2848.89" width="34.56" height="2.95" transform="translate(-4959.49 3948.87) rotate(-56.78)"/>
  <rect class="cls-1" x="6539.99" y="3061.8" width="34.56" height="2.95" transform="translate(-5137.61 4045.14) rotate(-56.78)"/>
  <rect class="cls-1" x="6539.99" y="3168.25" width="34.56" height="2.95" transform="translate(-5226.67 4093.27) rotate(-56.78)"/>
  <rect class="cls-1" x="6682.23" y="2848.89" width="34.56" height="2.95" transform="translate(-4895.18 4067.86) rotate(-56.78)"/>
  <rect class="cls-1" x="6682.23" y="3061.8" width="34.56" height="2.95" transform="translate(-5073.3 4164.13) rotate(-56.78)"/>
  <rect class="cls-1" x="6682.23" y="3168.25" width="34.56" height="2.95" transform="translate(-5162.35 4212.26) rotate(-56.78)"/>
  <rect class="cls-1" x="6824.46" y="2848.89" width="34.56" height="2.95" transform="translate(-4830.87 4186.85) rotate(-56.78)"/>
  <rect class="cls-1" x="6539.99" y="2955.34" width="34.56" height="2.95" transform="translate(-5048.55 3997) rotate(-56.78)"/>
  <rect class="cls-1" x="6682.23" y="2955.34" width="34.56" height="2.95" transform="translate(-4984.24 4116) rotate(-56.78)"/>
  <rect class="cls-1" x="6824.46" y="2955.34" width="34.56" height="2.95" transform="translate(-4919.93 4234.99) rotate(-56.78)"/>
  <rect class="cls-1" x="6824.46" y="3061.8" width="34.56" height="2.95" transform="translate(-5008.99 4283.12) rotate(-56.78)"/>
  <rect class="cls-1" x="6824.46" y="3168.25" width="34.56" height="2.95" transform="translate(-5098.04 4331.25) rotate(-56.78)"/>
  <rect class="cls-1" x="6824.46" y="3274.7" width="34.56" height="2.95" transform="matrix(0.55, -0.84, 0.84, 0.55, -5187.1, 4379.39)"/>
  <path class="cls-1" d="M5561.61,3079.51a21.77,21.77,0,1,1,21.77-21.77A21.8,21.8,0,0,1,5561.61,3079.51Zm0-41.73a20,20,0,1,0,20,20A20,20,0,0,0,5561.61,3037.78Z" transform="translate(-5539.84 -2825.61)"/>
  <polygon class="cls-1" points="302.98 261.11 301.38 260.11 315.26 237.93 300.43 237.93 318 211.1 319.59 212.13 303.93 236.03 318.68 236.03 302.98 261.11"/>
  <polygon class="cls-1" points="587.77 156.21 586.16 155.2 600.05 133.02 585.21 133.02 602.79 106.19 604.37 107.23 588.72 131.13 603.47 131.13 587.77 156.21"/>
  <polygon class="cls-1" points="723.38 477.78 721.77 476.78 735.66 454.6 720.83 454.6 738.4 427.77 739.99 428.81 724.33 452.7 739.08 452.7 723.38 477.78"/>
  <rect class="cls-1" x="5546.25" y="3398.63" width="34.56" height="2.95" transform="translate(-5868.73 3366.09) rotate(-56.78)"/>
  <rect class="cls-1" x="5972" y="3398.63" width="34.56" height="2.95" transform="matrix(0.55, -0.84, 0.84, 0.55, -5676.22, 3722.27)"/>
  <rect class="cls-1" x="5823.71" y="3398.63" width="34.56" height="2.95" transform="matrix(0.55, -0.84, 0.84, 0.55, -5743.27, 3598.21)"/>
  <rect class="cls-1" x="5684.98" y="3398.63" width="34.56" height="2.95" transform="matrix(0.55, -0.84, 0.84, 0.55, -5806, 3482.15)"/>
  <rect class="cls-1" x="6252.97" y="3396.58" width="34.56" height="2.95" transform="matrix(0.55, -0.84, 0.84, 0.55, -5547.47, 3956.4)"/>
  <rect class="cls-1" x="6397.76" y="3398.63" width="34.56" height="2.95" transform="matrix(0.55, -0.84, 0.84, 0.55, -5483.71, 4078.45)"/>
  <rect class="cls-1" x="6539.99" y="3398.63" width="34.56" height="2.95" transform="matrix(0.55, -0.84, 0.84, 0.55, -5419.4, 4197.44)"/>
  <rect class="cls-1" x="6682.23" y="3398.63" width="34.56" height="2.95" transform="matrix(0.55, -0.84, 0.84, 0.55, -5355.09, 4316.43)"/>
  <rect class="cls-1" x="6824.46" y="3398.63" width="34.56" height="2.95" transform="matrix(0.55, -0.84, 0.84, 0.55, -5290.78, 4435.42)"/>
  <polygon class="cls-1" points="566.1 601.71 564.5 600.71 578.38 578.52 563.55 578.52 581.12 551.7 582.71 552.73 567.05 576.63 581.8 576.63 566.1 601.71"/>
  <rect class="cls-1" x="5546.25" y="3522.56" width="34.56" height="2.95" transform="translate(-5972.4 3422.13) rotate(-56.78)"/>
  <rect class="cls-1" x="5972" y="3522.56" width="34.56" height="2.95" transform="matrix(0.55, -0.84, 0.84, 0.55, -5779.89, 3778.31)"/>
  <rect class="cls-1" x="6113.92" y="3522.56" width="34.56" height="2.95" transform="matrix(0.55, -0.84, 0.84, 0.55, -5715.72, 3897.03)"/>
  <rect class="cls-1" x="6397.76" y="3522.56" width="34.56" height="2.95" transform="matrix(0.55, -0.84, 0.84, 0.55, -5587.39, 4134.48)"/>
  <rect class="cls-1" x="1104.38" y="447.05" width="72.98" height="2.41"/>
  <rect class="cls-1" x="1046.61" y="468.33" width="72.98" height="2.41"/>
  <rect class="cls-1" x="993.39" y="444.01" width="72.98" height="2.41"/>
  <rect class="cls-1" x="1038.25" y="418.92" width="72.98" height="2.41"/>
  <rect class="cls-1" x="6252.97" y="3522.56" width="34.56" height="2.95" transform="matrix(0.55, -0.84, 0.84, 0.55, -5652.85, 4013.36)"/>
  <rect class="cls-1" x="6682.23" y="3522.56" width="34.56" height="2.95" transform="matrix(0.55, -0.84, 0.84, 0.55, -5458.76, 4372.47)"/>
  <rect class="cls-1" x="6824.46" y="3522.56" width="34.56" height="2.95" transform="matrix(0.55, -0.84, 0.84, 0.55, -5394.45, 4491.46)"/>
  <polygon class="cls-1" points="1020.68 722.6 1019.08 721.6 1032.97 699.42 1018.13 699.42 1035.71 672.59 1037.29 673.63 1021.63 697.53 1036.38 697.53 1020.68 722.6"/>
</svg>
