<svg id="Layer_1" data-name="Layer 1" xmlns="http://www.w3.org/2000/svg" viewBox="0 0 1371.46 3029.25">
  <defs>
    <style>
      .cls-1 {
        fill: #1db8d1;
      }
    </style>
  </defs>
  <title>pattern2</title>
  <rect class="cls-1" x="3688.66" y="4587.14" width="34.56" height="2.95" transform="translate(-5693.82 1210.37) rotate(-56.78)"/>
  <rect class="cls-1" x="4530.29" y="3978.49" width="34.56" height="2.95" transform="translate(-4804.09 1639.25) rotate(-56.78)"/>
  <rect class="cls-1" x="4182.91" y="4407.27" width="34.56" height="2.95" transform="translate(-5319.86 1542.52) rotate(-56.78)"/>
  <rect class="cls-1" x="3910.77" y="5102.49" width="34.56" height="2.95" transform="translate(-6024.52 1629.19) rotate(-56.78)"/>
  <rect class="cls-1" x="4748.03" y="5558.39" width="34.56" height="2.95" transform="translate(-6027.34 2535.77) rotate(-56.78)"/>
  <rect class="cls-1" x="3798.83" y="5558.39" width="34.56" height="2.95" transform="translate(-6456.52 1741.69) rotate(-56.78)"/>
  <rect class="cls-1" x="4544.2" y="5865.23" width="34.56" height="2.95" transform="translate(-6376.2 2503.99) rotate(-56.78)"/>
  <rect class="cls-1" x="4833.63" y="4653.75" width="34.56" height="2.95" transform="translate(-5231.84 2198.34) rotate(-56.78)"/>
  <rect class="cls-1" x="1298.48" y="1062.81" width="72.98" height="2.41"/>
  <rect class="cls-1" x="1240.7" y="1084.1" width="72.98" height="2.41"/>
  <rect class="cls-1" x="1187.48" y="1059.77" width="72.98" height="2.41"/>
  <rect class="cls-1" x="1232.34" y="1034.68" width="72.98" height="2.41"/>
  <rect class="cls-1" x="66.14" y="1998.14" width="72.98" height="2.41"/>
  <rect class="cls-1" x="8.36" y="2019.42" width="72.98" height="2.41"/>
  <rect class="cls-1" y="1970.01" width="72.98" height="2.41"/>
  <path class="cls-1" d="M4200.19,4770.54a21.77,21.77,0,1,1,21.77-21.77A21.8,21.8,0,0,1,4200.19,4770.54Zm0-41.73a20,20,0,1,0,20,20A20,20,0,0,0,4200.19,4728.82Z" transform="translate(-3530.73 -3964.71)"/>
  <path class="cls-1" d="M3695,5318.22a21.77,21.77,0,1,1,21.77-21.77A21.8,21.8,0,0,1,3695,5318.22Zm0-41.73a20,20,0,1,0,20,20A20,20,0,0,0,3695,5276.49Z" transform="translate(-3530.73 -3964.71)"/>
  <polygon class="cls-1" points="747.21 2481.61 745.6 2480.61 759.49 2458.42 744.65 2458.42 762.23 2431.6 763.81 2432.63 748.15 2456.53 762.9 2456.53 747.21 2481.61"/>
  <rect class="cls-1" x="3968.2" y="6747.23" width="34.56" height="2.95" transform="translate(-7374.5 2420.92) rotate(-56.78)"/>
  <rect class="cls-1" x="4679.2" y="6977.23" width="34.56" height="2.95" transform="translate(-7245.44 3119.72) rotate(-56.78)"/>
  <path class="cls-1" d="M3794.19,6433.54a21.77,21.77,0,1,1,21.77-21.77A21.8,21.8,0,0,1,3794.19,6433.54Zm0-41.73a20,20,0,1,0,20,20A20,20,0,0,0,3794.19,6391.82Z" transform="translate(-3530.73 -3964.71)"/>
</svg>
