<svg id="Layer_1" data-name="Layer 1" xmlns="http://www.w3.org/2000/svg" viewBox="0 0 597.68 89.19">
  <defs>
    <style>
      .cls-1 {
        fill: #fff;
      }

      .cls-2, .cls-3 {
        fill: none;
        stroke: #1d1d1b;
        stroke-miterlimit: 10;
      }

      .cls-2 {
        stroke-width: 10px;
      }

      .cls-3 {
        stroke-width: 3px;
      }
    </style>
  </defs>
  <title>back</title>
  <polygon class="cls-1" points="8.51 0 594.11 0 588.28 27.65 533.31 84.19 5 84.19 8.51 0"/>
  <polyline class="cls-2" points="594.11 21.65 532.94 84.19 5 84.19 5 0"/>
  <line class="cls-3" x1="518.48" y1="69.46" x2="535.51" y2="52.06"/>
  <line class="cls-3" x1="455.99" y1="69.46" x2="473.01" y2="52.06"/>
  <line class="cls-3" x1="393.49" y1="69.46" x2="410.51" y2="52.06"/>
  <line class="cls-3" x1="330.99" y1="69.46" x2="348.02" y2="52.06"/>
  <line class="cls-3" x1="268.49" y1="69.46" x2="285.52" y2="52.06"/>
  <line class="cls-3" x1="205.99" y1="69.46" x2="223.02" y2="52.06"/>
  <line class="cls-3" x1="143.49" y1="69.46" x2="160.52" y2="52.06"/>
  <line class="cls-3" x1="81" y1="69.46" x2="98.02" y2="52.06"/>
  <line class="cls-3" x1="18.5" y1="69.46" x2="35.52" y2="52.06"/>
  <line class="cls-3" x1="501.46" y1="47" x2="518.48" y2="29.59"/>
  <line class="cls-3" x1="438.96" y1="47" x2="455.99" y2="29.59"/>
  <line class="cls-3" x1="376.46" y1="47" x2="393.49" y2="29.59"/>
  <line class="cls-3" x1="313.96" y1="47" x2="330.99" y2="29.59"/>
  <line class="cls-3" x1="251.47" y1="47" x2="268.49" y2="29.59"/>
  <line class="cls-3" x1="188.97" y1="47" x2="205.99" y2="29.59"/>
  <line class="cls-3" x1="126.47" y1="47" x2="143.49" y2="29.59"/>
  <line class="cls-3" x1="63.97" y1="47" x2="81" y2="29.59"/>
  <line class="cls-3" x1="1.47" y1="47" x2="18.5" y2="29.59"/>
  <line class="cls-3" x1="555.44" y1="24.54" x2="572.47" y2="7.13"/>
  <line class="cls-3" x1="492.95" y1="24.54" x2="509.97" y2="7.13"/>
  <line class="cls-3" x1="430.45" y1="24.54" x2="447.47" y2="7.13"/>
  <line class="cls-3" x1="367.95" y1="24.54" x2="384.98" y2="7.13"/>
  <line class="cls-3" x1="305.45" y1="24.54" x2="322.48" y2="7.13"/>
  <line class="cls-3" x1="242.95" y1="24.54" x2="259.98" y2="7.13"/>
  <line class="cls-3" x1="180.46" y1="24.54" x2="197.48" y2="7.13"/>
  <line class="cls-3" x1="117.96" y1="24.54" x2="134.98" y2="7.13"/>
  <line class="cls-3" x1="55.46" y1="24.54" x2="72.48" y2="7.13"/>
</svg>
