<svg id="Layer_1" data-name="Layer 1" xmlns="http://www.w3.org/2000/svg" viewBox="0 0 832.17 689.35">
  <defs>
    <style>
      .cls-1 {
        fill: none;
        stroke: #1d1d1b;
        stroke-miterlimit: 10;
        stroke-width: 3px;
      }
    </style>
  </defs>
  <title>cloud</title>
  <line class="cls-1" x1="741.25" y1="503.46" x2="832.17" y2="503.46"/>
  <line class="cls-1" x1="669.27" y1="529.97" x2="760.19" y2="529.97"/>
  <line class="cls-1" x1="602.98" y1="499.67" x2="693.9" y2="499.67"/>
  <line class="cls-1" x1="658.86" y1="468.42" x2="749.77" y2="468.42"/>
  <line class="cls-1" x1="141.11" y1="390.91" x2="232.03" y2="390.91"/>
  <line class="cls-1" x1="69.13" y1="417.42" x2="160.05" y2="417.42"/>
  <line class="cls-1" x1="2.84" y1="387.12" x2="93.76" y2="387.12"/>
  <line class="cls-1" x1="58.72" y1="355.87" x2="149.63" y2="355.87"/>
  <line class="cls-1" x1="567.94" y1="246.71" x2="658.86" y2="246.71"/>
  <line class="cls-1" x1="495.97" y1="273.22" x2="586.88" y2="273.22"/>
  <line class="cls-1" x1="429.67" y1="242.92" x2="520.59" y2="242.92"/>
  <line class="cls-1" x1="485.55" y1="211.67" x2="576.46" y2="211.67"/>
  <line class="cls-1" x1="370.3" y1="661.33" x2="461.21" y2="661.33"/>
  <line class="cls-1" x1="298.32" y1="687.85" x2="389.24" y2="687.85"/>
  <line class="cls-1" x1="232.03" y1="657.55" x2="322.94" y2="657.55"/>
  <line class="cls-1" x1="287.9" y1="626.29" x2="378.82" y2="626.29"/>
  <line class="cls-1" x1="138.27" y1="36.54" x2="229.19" y2="36.54"/>
  <line class="cls-1" x1="66.29" y1="63.06" x2="157.21" y2="63.06"/>
  <line class="cls-1" y1="32.75" x2="90.92" y2="32.75"/>
  <line class="cls-1" x1="55.88" y1="1.5" x2="146.79" y2="1.5"/>
</svg>
