<svg id="white" xmlns="http://www.w3.org/2000/svg" viewBox="0 0 660.83 581.32">
  <defs>
    <style>
      .cls-1 {
        fill: #fff;
      }

      .cls-2, .cls-4, .cls-5, .cls-7 {
        fill: none;
        stroke-miterlimit: 10;
      }

      .cls-2 {
        stroke: #d5ebe5;
      }

      .cls-2, .cls-4, .cls-5 {
        stroke-width: 4px;
      }

      .cls-3 {
        fill: #d5ebe5;
      }

      .cls-4 {
        stroke: #ea5b0c;
      }

      .cls-5 {
        stroke: #f39200;
      }

      .cls-6 {
        fill: #9d9d9c;
      }

      .cls-7 {
        stroke: #9d9d9c;
        stroke-width: 9px;
      }

      .cls-8 {
        fill: #f39200;
      }

      .cls-9 {
        fill: #ea5b0c;
      }
    </style>
  </defs>
  <title>plan01-03</title>
  <polygon class="cls-1" points="328.61 5.68 5.61 209.08 157.67 577.09 508.3 551.17 655.17 176.09 328.61 5.68"/>
  <polyline class="cls-2" points="54.81 177.6 76.49 234.27 158.44 182.34 134.72 127.28"/>
  <rect class="cls-3" x="3115.18" y="284.6" width="82.22" height="129.73" transform="translate(3307.75 -733.88) rotate(156.38)"/>
  <polyline class="cls-2" points="100.14 432.62 237.21 421.54 253.09 458.02"/>
  <polyline class="cls-4" points="242.13 568.77 240.66 551.78 382.56 540.83 384.21 559.84"/>
  <path class="cls-5" d="M3482.89,449.15s-11.82-5.28-9.15-15.41,17-4.69,17-4.69" transform="translate(-2880.44 -138.93)"/>
  <path class="cls-5" d="M3434.27,573.31s-10.39-8.75-10.07-18.66,5-51.78,5-51.78l17-40" transform="translate(-2880.44 -138.93)"/>
  <path class="cls-6" d="M3529.93,315.46l-1.72,23.35c-0.25,0-.93,3.82-1.19,3.82-10.87,0-17.55-8-17.55-18s3.65-17.46,14.52-17.46C3524.26,307.19,3527.64,318.65,3529.93,315.46Z" transform="translate(-2880.44 -138.93)"/>
  <path class="cls-6" d="M2891,365.15l0.88-23.39c0.25,0,.79-3.85,1-3.86,10.87-.39,17.82,7.36,18.18,17.34s-3,17.58-13.89,18C2897,373.21,2893.22,361.88,2891,365.15Z" transform="translate(-2880.44 -138.93)"/>
  <path class="cls-6" d="M3048.5,716.46l-17.89-15.09c0.13-.22-2.55-3-2.4-3.2,6.38-8.8,16.77-9.52,24.86-3.66s12,13.2,5.61,22C3058.52,716.72,3047.26,712.73,3048.5,716.46Z" transform="translate(-2880.44 -138.93)"/>
  <path class="cls-6" d="M3394.72,678.95l-19.53,12.91c-0.17-.19-3.59,1.61-3.75,1.4-6.65-8.61-4.4-18.77,3.51-24.88s16-7.78,22.69.82C3397.8,669.4,3390.8,679.08,3394.72,678.95Z" transform="translate(-2880.44 -138.93)"/>
  <path class="cls-6" d="M3055.37,241.79l30.31-19.68c0.15,0.2.3,0.42,0.44,0.64,5.92,9.12,3.93,20.92-4.45,26.36s-20,2.47-25.89-6.65C3055.63,242.23,3055.49,242,3055.37,241.79Z" transform="translate(-2880.44 -138.93)"/>
  <polygon class="cls-7" points="157.67 576.59 5.61 208.58 328.61 5.18 655.17 175.59 508.3 550.67 157.67 576.59"/>
  <polygon class="cls-7" points="316.83 197.82 242.53 246.74 299.04 379.62 395.35 375.75 435.32 260.17 316.83 197.82"/>
  <path class="cls-7" d="M2914.71,329.46" transform="translate(-2880.44 -138.93)"/>
  <polyline class="cls-7" points="236.99 62.88 481.49 198.95 554.75 123.19"/>
  <circle class="cls-8" cx="3348.49" cy="481" r="7.56" transform="translate(-2714.7 1488.31) rotate(-27.98)"/>
  <circle class="cls-8" cx="3382.59" cy="462.89" r="7.56" transform="translate(-2702.21 1502.19) rotate(-27.98)"/>
  <circle class="cls-8" cx="3380.13" cy="508.32" r="7.56" transform="translate(-2723.82 1506.35) rotate(-27.98)"/>
  <circle class="cls-8" cx="3407.55" cy="493.76" r="7.56" transform="translate(-2713.78 1517.51) rotate(-27.98)"/>
  <rect class="cls-3" x="3058.4" y="456.95" width="13.43" height="25.74" transform="translate(-403.77 -2713.67) rotate(70.35)"/>
  <rect class="cls-3" x="2999.1" y="460.64" width="13.43" height="25.74" transform="translate(-439.65 -2655.38) rotate(70.35)"/>
  <rect class="cls-3" x="3032.16" y="421.75" width="13.43" height="25.74" transform="translate(-454.33 -2712.32) rotate(70.35)"/>
  <rect class="cls-3" x="3082.74" y="486.84" width="13.43" height="25.74" transform="translate(-359.46 -2716.76) rotate(70.35)"/>
  <rect class="cls-3" x="3054.6" y="522.87" width="13.43" height="25.74" transform="translate(-344.21 -2666.35) rotate(70.35)"/>
  <rect class="cls-3" x="3023.57" y="490.91" width="13.43" height="25.74" transform="translate(-394.9 -2658.34) rotate(70.35)"/>
  <rect class="cls-1" x="3207.82" y="510.01" width="41.18" height="14.88" transform="matrix(1, -0.04, 0.04, 1, -2897.93, -14.57)"/>
  <rect class="cls-1" x="3310.76" y="313.83" width="41.18" height="14.88" transform="translate(-2273.48 -1761.56) rotate(30)"/>
  <rect class="cls-9" x="3186.42" y="621.83" width="18.16" height="18.16" transform="translate(-2909.88 34.81) rotate(-3.1)"/>
  <rect class="cls-9" x="3220.86" y="586.32" width="18.16" height="18.16" transform="translate(-2907.91 36.62) rotate(-3.1)"/>
  <rect class="cls-9" x="3255.57" y="618.09" width="18.16" height="18.16" transform="translate(-2909.58 38.55) rotate(-3.1)"/>
  <rect class="cls-9" x="3224.36" y="650.89" width="18.16" height="18.16" transform="translate(-2911.4 36.91) rotate(-3.1)"/>
  <line class="cls-7" x1="113.12" y1="468.77" x2="263.27" y2="456.47"/>
  <polyline class="cls-7" points="524.82 508.48 450.27 481.32 473.24 426.76 546.3 453.62"/>
</svg>
