<svg id="grey" xmlns="http://www.w3.org/2000/svg" viewBox="0 0 855.87 763.57">
  <defs>
    <style>
      .cls-1, .cls-2 {
        fill: #1d1d1b;
      }

      .cls-2, .cls-3, .cls-4, .cls-5, .cls-6 {
        stroke: #1d1d1b;
        stroke-miterlimit: 10;
      }

      .cls-3, .cls-4, .cls-5, .cls-6 {
        fill: none;
      }

      .cls-3 {
        stroke-width: 10px;
      }

      .cls-5 {
        stroke-width: 4px;
      }

      .cls-6 {
        stroke-width: 2px;
      }
    </style>
  </defs>
  <title>plan</title>
  <g>
    <line class="cls-1" x1="567.26" y1="77.04" x2="576.09" y2="52.29"/>
    <rect class="cls-1" x="2079.18" y="125.32" width="26.28" height="5.25" rx="2.62" ry="2.62" transform="translate(-251.83 1992.36) rotate(-70.37)"/>
  </g>
  <g>
    <line class="cls-1" x1="572.6" y1="48.07" x2="575.67" y2="21.97"/>
    <rect class="cls-1" x="2085.18" y="95.79" width="26.28" height="5.25" rx="2.62" ry="2.62" transform="translate(270.97 2113.25) rotate(-84.29)"/>
  </g>
  <g>
    <line class="cls-1" x1="256.98" y1="24" x2="260.01" y2="50.1"/>
    <rect class="cls-1" x="1772.98" y="85.79" width="5.25" height="26.28" rx="2.62" ry="2.62" transform="translate(-1520.19 142.33) rotate(-6.63)"/>
  </g>
  <g>
    <line class="cls-1" x1="261.56" y1="50.16" x2="269.79" y2="75.11"/>
    <rect class="cls-1" x="1779.58" y="114.71" width="5.25" height="26.28" rx="2.62" ry="2.62" transform="translate(-1471.01 501.38) rotate(-18.25)"/>
  </g>
  <path class="cls-2" d="M2371.51,272.27v47.39c-0.33,0-.67,0-1,0-14.26,0-25.81-10.62-25.81-23.72s11.55-23.72,25.81-23.72C2370.83,272.24,2371.18,272.24,2371.51,272.27Z" transform="translate(-1520.64 -63.28)"/>
  <path class="cls-1" d="M2202.76,772.13l-44.71,15.72c-0.13-.3-0.25-0.63-0.36-1-4.73-13.45,1.46-27.87,13.82-32.22s26.21,3,30.94,16.48C2202.56,771.49,2202.68,771.81,2202.76,772.13Z" transform="translate(-1520.64 -63.28)"/>
  <path class="cls-1" d="M1754,818.49l-45.51-13.24c0.07-.33.16-0.66,0.26-1,4-13.69,17.41-21.81,30-18.15s19.55,17.72,15.57,31.41C1754.24,817.85,1754.14,818.18,1754,818.49Z" transform="translate(-1520.64 -63.28)"/>
  <path class="cls-2" d="M1530.28,355.4l0.09-47.39c0.33,0,.68,0,1,0,14.26,0,25.79,10.67,25.76,23.77s-11.59,23.7-25.85,23.67C1531,355.43,1530.61,355.43,1530.28,355.4Z" transform="translate(-1520.64 -63.28)"/>
  <ellipse class="cls-1" cx="2161.75" cy="461.52" rx="26.45" ry="23.72" transform="translate(-242.24 2424.54) rotate(-78.5)"/>
  <ellipse class="cls-1" cx="1738.63" cy="486.78" rx="23.72" ry="26.45" transform="translate(-1587.47 412.55) rotate(-15.29)"/>
  <ellipse class="cls-1" cx="427.28" cy="578.05" rx="26.45" ry="23.72"/>
  <ellipse class="cls-1" cx="1811.65" cy="197.33" rx="26.45" ry="23.72" transform="translate(-1217.62 1156.34) rotate(-40.34)"/>
  <ellipse class="cls-1" cx="2072.93" cy="182.65" rx="23.72" ry="26.45" transform="matrix(0.67, -0.74, 0.74, 0.67, -975.34, 1532.44)"/>
  <path class="cls-1" d="M1875.13,235.05c62-46.87,123.94,0,123.94,0s-36.24,13.12-64.93,11.73S1875.13,235.05,1875.13,235.05Z" transform="translate(-1520.64 -63.28)"/>
  <path class="cls-3" d="M1937.1,246.79A168.84,168.84,0,0,1,1768.26,77.94h337.69A168.84,168.84,0,0,1,1937.1,246.79Z" transform="translate(-1520.64 -63.28)"/>
  <circle class="cls-3" cx="682.02" cy="232.69" r="168.85"/>
  <circle class="cls-3" cx="597.43" cy="563.82" r="168.85"/>
  <circle class="cls-4" cx="597.43" cy="563.82" r="156.87"/>
  <circle class="cls-3" cx="258.43" cy="589.72" r="168.85"/>
  <circle class="cls-3" cx="173.85" cy="263.18" r="168.85"/>
  <path class="cls-5" d="M1875.13,235.05" transform="translate(-1520.64 -63.28)"/>
  <line class="cls-6" x1="449.08" x2="449.08" y2="18.43"/>
  <line class="cls-6" x1="403.99" y1="0.26" x2="403.99" y2="18.7"/>
  <path class="cls-1" d="M1973.16,114.85h0a2.62,2.62,0,0,1,2.89-2.56,58.54,58.54,0,0,1,12.08,2.58c10.67,3.53,18.36,9.86,22.23,18.32,7.69,16.82,4,32.49-2,41.86a2.61,2.61,0,0,1-3.79.63h0a2.61,2.61,0,0,1-.64-3.45c3.16-5.1,9.77-19,1.64-36.85-6.42-14.05-23.72-17.18-30.08-17.86A2.62,2.62,0,0,1,1973.16,114.85Z" transform="translate(-1520.64 -63.28)"/>
  <line class="cls-2" x1="850.87" y1="263.18" x2="850.87" y2="256.38"/>
  <circle class="cls-5" cx="682.02" cy="232.69" r="43.27"/>
  <circle class="cls-5" cx="597.43" cy="554.33" r="43.27"/>
  <polygon class="cls-1" points="531.94 303.37 565.84 232.69 522.01 178.65 511.9 241.01 531.94 303.37"/>
  <polygon class="cls-1" points="837.45 295.24 806.7 295.24 791.79 322.8 799.93 353.53 827.97 317.63 837.45 295.24"/>
  <path class="cls-5" d="M2064.14,383.36l18.59-24.85s-13.81-17.23-23.21-54.23,8.13-65.06,8.13-65.06l-18.56-13.5" transform="translate(-1520.64 -63.28)"/>
  <polygon class="cls-1" points="92.34 573.8 173.85 573.8 173.85 735.2 133.09 699.99 109.92 670.13 87.45 611.46 92.34 573.8"/>
  <rect class="cls-1" x="262.85" y="574.54" width="88.71" height="48.74"/>
  <polygon class="cls-1" points="302.01 373.09 307.21 268.43 340.93 287.57 321.47 340.05 302.01 373.09"/>
  <polygon class="cls-2" points="34.87 167.28 66.64 193.26 72.67 187.23 42.44 161.44 34.87 167.28"/>
  <path class="cls-1" d="M2007.93,169.53" transform="translate(-1520.64 -63.28)"/>
  <polygon class="cls-1" points="462.01 52.87 487.71 103.56 491.11 95.31 488.84 73.62 475.57 57.1 462.01 52.87"/>
</svg>
