<svg id="rain" data-name="Layer 1" xmlns="http://www.w3.org/2000/svg" viewBox="0 0 834.77 674.26">
  <defs>
    <style>
      #rain .cls-1 {
        fill: none;
        stroke: #1d1d1b;
        stroke-miterlimit: 10;
        stroke-width: 3px;
      }
    </style>
  </defs>
  <title>rain</title>
  <line class="cls-1" x1="1.25" y1="30.24" x2="20.53" y2="0.82"/>
  <line class="cls-1" x1="136.75" y1="30.24" x2="156.03" y2="0.82"/>
  <line class="cls-1" x1="272.25" y1="30.24" x2="291.52" y2="0.82"/>
  <line class="cls-1" x1="407.75" y1="30.24" x2="427.02" y2="0.82"/>
  <line class="cls-1" x1="543.24" y1="30.24" x2="562.52" y2="0.82"/>
  <line class="cls-1" x1="678.74" y1="30.24" x2="698.01" y2="0.82"/>
  <line class="cls-1" x1="814.24" y1="30.24" x2="833.51" y2="0.82"/>
  <line class="cls-1" x1="1.25" y1="158.88" x2="20.53" y2="129.46"/>
  <line class="cls-1" x1="136.75" y1="158.88" x2="156.03" y2="129.46"/>
  <line class="cls-1" x1="272.25" y1="158.88" x2="291.52" y2="129.46"/>
  <line class="cls-1" x1="407.75" y1="158.88" x2="427.02" y2="129.46"/>
  <line class="cls-1" x1="543.24" y1="158.88" x2="562.52" y2="129.46"/>
  <line class="cls-1" x1="678.74" y1="158.88" x2="698.01" y2="129.46"/>
  <line class="cls-1" x1="814.24" y1="158.88" x2="833.51" y2="129.46"/>
  <line class="cls-1" x1="1.25" y1="287.52" x2="20.53" y2="258.1"/>
  <line class="cls-1" x1="136.75" y1="287.52" x2="156.03" y2="258.1"/>
  <line class="cls-1" x1="272.25" y1="287.52" x2="291.52" y2="258.1"/>
  <line class="cls-1" x1="407.75" y1="287.52" x2="427.02" y2="258.1"/>
  <line class="cls-1" x1="543.24" y1="287.52" x2="562.52" y2="258.1"/>
  <line class="cls-1" x1="678.74" y1="287.52" x2="698.01" y2="258.1"/>
  <line class="cls-1" x1="814.24" y1="287.52" x2="833.51" y2="258.1"/>
  <line class="cls-1" x1="1.25" y1="416.16" x2="20.53" y2="386.74"/>
  <line class="cls-1" x1="136.75" y1="416.16" x2="156.03" y2="386.74"/>
  <line class="cls-1" x1="272.25" y1="416.16" x2="291.52" y2="386.74"/>
  <line class="cls-1" x1="407.75" y1="416.16" x2="427.02" y2="386.74"/>
  <line class="cls-1" x1="543.24" y1="416.16" x2="562.52" y2="386.74"/>
  <line class="cls-1" x1="678.74" y1="416.16" x2="698.01" y2="386.74"/>
  <line class="cls-1" x1="814.24" y1="416.16" x2="833.51" y2="386.74"/>
  <line class="cls-1" x1="1.25" y1="544.8" x2="20.53" y2="515.38"/>
  <line class="cls-1" x1="136.75" y1="544.8" x2="156.03" y2="515.38"/>
  <line class="cls-1" x1="272.25" y1="544.8" x2="291.52" y2="515.38"/>
  <line class="cls-1" x1="407.75" y1="544.8" x2="427.02" y2="515.38"/>
  <line class="cls-1" x1="543.24" y1="544.8" x2="562.52" y2="515.38"/>
  <line class="cls-1" x1="678.74" y1="544.8" x2="698.01" y2="515.38"/>
  <line class="cls-1" x1="814.24" y1="544.8" x2="833.51" y2="515.38"/>
  <line class="cls-1" x1="1.25" y1="673.44" x2="20.53" y2="644.02"/>
  <line class="cls-1" x1="136.75" y1="673.44" x2="156.03" y2="644.02"/>
  <line class="cls-1" x1="272.25" y1="673.44" x2="291.52" y2="644.02"/>
  <line class="cls-1" x1="407.75" y1="673.44" x2="427.02" y2="644.02"/>
  <line class="cls-1" x1="543.24" y1="673.44" x2="562.52" y2="644.02"/>
  <line class="cls-1" x1="678.74" y1="673.44" x2="698.01" y2="644.02"/>
  <line class="cls-1" x1="814.24" y1="673.44" x2="833.51" y2="644.02"/>
</svg>
