<svg id="Layer_1" data-name="Layer 1" xmlns="http://www.w3.org/2000/svg" viewBox="0 0 849.18 700">
  <defs>
    <style>
      .cls-1 {
        fill: none;
        stroke: #1d1d1b;
        stroke-miterlimit: 10;
        stroke-width: 3px;
      }
    </style>
  </defs>
  <title>storm</title>
  <line class="cls-1" x1="758.26" y1="514.1" x2="849.18" y2="514.1"/>
  <line class="cls-1" x1="686.29" y1="540.62" x2="777.2" y2="540.62"/>
  <line class="cls-1" x1="619.99" y1="510.32" x2="710.91" y2="510.32"/>
  <line class="cls-1" x1="675.87" y1="479.06" x2="766.78" y2="479.06"/>
  <line class="cls-1" x1="158.12" y1="401.55" x2="249.04" y2="401.55"/>
  <line class="cls-1" x1="86.14" y1="428.07" x2="177.06" y2="428.07"/>
  <line class="cls-1" x1="19.85" y1="397.77" x2="110.77" y2="397.77"/>
  <line class="cls-1" x1="75.73" y1="366.51" x2="166.64" y2="366.51"/>
  <line class="cls-1" x1="584.95" y1="257.35" x2="675.87" y2="257.35"/>
  <line class="cls-1" x1="512.98" y1="283.87" x2="603.89" y2="283.87"/>
  <line class="cls-1" x1="446.68" y1="253.57" x2="537.6" y2="253.57"/>
  <line class="cls-1" x1="502.56" y1="222.31" x2="593.47" y2="222.31"/>
  <line class="cls-1" x1="387.31" y1="671.98" x2="478.22" y2="671.98"/>
  <line class="cls-1" x1="315.33" y1="698.5" x2="406.25" y2="698.5"/>
  <line class="cls-1" x1="249.04" y1="668.19" x2="339.95" y2="668.19"/>
  <line class="cls-1" x1="304.91" y1="636.94" x2="395.83" y2="636.94"/>
  <line class="cls-1" x1="155.28" y1="47.19" x2="246.2" y2="47.19"/>
  <line class="cls-1" x1="83.3" y1="73.71" x2="174.22" y2="73.71"/>
  <line class="cls-1" x1="17.01" y1="43.4" x2="107.93" y2="43.4"/>
  <line class="cls-1" x1="72.89" y1="12.15" x2="163.8" y2="12.15"/>
  <line class="cls-1" x1="1.25" y1="30.24" x2="20.53" y2="0.82"/>
  <line class="cls-1" x1="136.75" y1="30.24" x2="156.03" y2="0.82"/>
  <line class="cls-1" x1="272.25" y1="30.24" x2="291.52" y2="0.82"/>
  <line class="cls-1" x1="407.75" y1="30.24" x2="427.02" y2="0.82"/>
  <line class="cls-1" x1="543.24" y1="30.24" x2="562.52" y2="0.82"/>
  <line class="cls-1" x1="678.74" y1="30.24" x2="698.01" y2="0.82"/>
  <line class="cls-1" x1="814.24" y1="30.24" x2="833.51" y2="0.82"/>
  <line class="cls-1" x1="1.25" y1="158.88" x2="20.53" y2="129.46"/>
  <line class="cls-1" x1="136.75" y1="158.88" x2="156.03" y2="129.46"/>
  <line class="cls-1" x1="272.25" y1="158.88" x2="291.52" y2="129.46"/>
  <line class="cls-1" x1="407.75" y1="158.88" x2="427.02" y2="129.46"/>
  <line class="cls-1" x1="543.24" y1="158.88" x2="562.52" y2="129.46"/>
  <line class="cls-1" x1="678.74" y1="158.88" x2="698.01" y2="129.46"/>
  <line class="cls-1" x1="814.24" y1="158.88" x2="833.51" y2="129.46"/>
  <line class="cls-1" x1="1.25" y1="287.52" x2="20.53" y2="258.1"/>
  <line class="cls-1" x1="136.75" y1="287.52" x2="156.03" y2="258.1"/>
  <line class="cls-1" x1="272.25" y1="287.52" x2="291.52" y2="258.1"/>
  <line class="cls-1" x1="407.75" y1="287.52" x2="427.02" y2="258.1"/>
  <line class="cls-1" x1="543.24" y1="287.52" x2="562.52" y2="258.1"/>
  <line class="cls-1" x1="678.74" y1="287.52" x2="698.01" y2="258.1"/>
  <line class="cls-1" x1="814.24" y1="287.52" x2="833.51" y2="258.1"/>
  <line class="cls-1" x1="1.25" y1="416.16" x2="20.53" y2="386.74"/>
  <line class="cls-1" x1="136.75" y1="416.16" x2="156.03" y2="386.74"/>
  <line class="cls-1" x1="272.25" y1="416.16" x2="291.52" y2="386.74"/>
  <line class="cls-1" x1="407.75" y1="416.16" x2="427.02" y2="386.74"/>
  <line class="cls-1" x1="543.24" y1="416.16" x2="562.52" y2="386.74"/>
  <line class="cls-1" x1="678.74" y1="416.16" x2="698.01" y2="386.74"/>
  <line class="cls-1" x1="814.24" y1="416.16" x2="833.51" y2="386.74"/>
  <line class="cls-1" x1="1.25" y1="544.8" x2="20.53" y2="515.38"/>
  <line class="cls-1" x1="136.75" y1="544.8" x2="156.03" y2="515.38"/>
  <line class="cls-1" x1="272.25" y1="544.8" x2="291.52" y2="515.38"/>
  <line class="cls-1" x1="407.75" y1="544.8" x2="427.02" y2="515.38"/>
  <line class="cls-1" x1="543.24" y1="544.8" x2="562.52" y2="515.38"/>
  <line class="cls-1" x1="678.74" y1="544.8" x2="698.01" y2="515.38"/>
  <line class="cls-1" x1="814.24" y1="544.8" x2="833.51" y2="515.38"/>
  <line class="cls-1" x1="1.25" y1="673.44" x2="20.53" y2="644.02"/>
  <line class="cls-1" x1="136.75" y1="673.44" x2="156.03" y2="644.02"/>
  <line class="cls-1" x1="272.25" y1="673.44" x2="291.52" y2="644.02"/>
  <line class="cls-1" x1="407.75" y1="673.44" x2="427.02" y2="644.02"/>
  <line class="cls-1" x1="543.24" y1="673.44" x2="562.52" y2="644.02"/>
  <line class="cls-1" x1="678.74" y1="673.44" x2="698.01" y2="644.02"/>
  <line class="cls-1" x1="814.24" y1="673.44" x2="833.51" y2="644.02"/>
</svg>
