<svg id="Layer_1" data-name="Layer 1" xmlns="http://www.w3.org/2000/svg" viewBox="0 0 1135.02 743.33">
  <defs>
    <style>
      .cls-1 {
        fill: none;
        stroke: #1d1d1b;
        stroke-miterlimit: 10;
        stroke-width: 3px;
      }
    </style>
  </defs>
  <title>sun</title>
  <circle class="cls-1" cx="35.98" cy="35.98" r="34.48"/>
  <circle class="cls-1" cx="180.97" cy="35.98" r="34.48"/>
  <circle class="cls-1" cx="325.97" cy="35.98" r="34.48"/>
  <circle class="cls-1" cx="470.96" cy="35.98" r="34.48"/>
  <circle class="cls-1" cx="615.96" cy="35.98" r="34.48"/>
  <circle class="cls-1" cx="760.95" cy="35.98" r="34.48"/>
  <circle class="cls-1" cx="905.95" cy="35.98" r="34.48"/>
  <circle class="cls-1" cx="132.53" cy="203.82" r="34.48"/>
  <circle class="cls-1" cx="277.52" cy="203.82" r="34.48"/>
  <circle class="cls-1" cx="422.51" cy="203.82" r="34.48"/>
  <circle class="cls-1" cx="567.51" cy="203.82" r="34.48"/>
  <circle class="cls-1" cx="712.5" cy="203.82" r="34.48"/>
  <circle class="cls-1" cx="857.5" cy="203.82" r="34.48"/>
  <circle class="cls-1" cx="1002.49" cy="203.82" r="34.48"/>
  <circle class="cls-1" cx="229.07" cy="371.67" r="34.48"/>
  <circle class="cls-1" cx="374.07" cy="371.67" r="34.48"/>
  <circle class="cls-1" cx="519.06" cy="371.67" r="34.48"/>
  <circle class="cls-1" cx="664.05" cy="371.67" r="34.48"/>
  <circle class="cls-1" cx="809.05" cy="371.67" r="34.48"/>
  <circle class="cls-1" cx="954.04" cy="371.67" r="34.48"/>
  <circle class="cls-1" cx="1099.04" cy="371.67" r="34.48"/>
  <circle class="cls-1" cx="132.53" cy="539.51" r="34.48"/>
  <circle class="cls-1" cx="277.52" cy="539.51" r="34.48"/>
  <circle class="cls-1" cx="422.51" cy="539.51" r="34.48"/>
  <circle class="cls-1" cx="567.51" cy="539.51" r="34.48"/>
  <circle class="cls-1" cx="712.5" cy="539.51" r="34.48"/>
  <circle class="cls-1" cx="857.5" cy="539.51" r="34.48"/>
  <circle class="cls-1" cx="1002.49" cy="539.51" r="34.48"/>
  <circle class="cls-1" cx="35.98" cy="707.35" r="34.48"/>
  <circle class="cls-1" cx="180.97" cy="707.35" r="34.48"/>
  <circle class="cls-1" cx="325.97" cy="707.35" r="34.48"/>
  <circle class="cls-1" cx="470.96" cy="707.35" r="34.48"/>
  <circle class="cls-1" cx="615.96" cy="707.35" r="34.48"/>
  <circle class="cls-1" cx="760.95" cy="707.35" r="34.48"/>
  <circle class="cls-1" cx="905.95" cy="707.35" r="34.48"/>
</svg>
